<svg width="222" height="173" viewBox="0 0 222 173" fill="none" xmlns="http://www.w3.org/2000/svg">
<g filter="url(#filter0_di_1115_91)">
<path d="M22.543 154.54C10.887 158.748 6.65767 150.682 6 146.123C7.457 141.314 22.3912 140.011 29.6762 139.961C32.5902 138.759 73.285 140.462 93.2681 141.464C105.531 142.667 173.555 145.873 206.034 147.326C212.59 147.927 208.766 154.59 206.034 157.846C203.241 159.289 154.28 156.243 130.148 154.54C87.4098 150.813 40.6037 152.987 22.543 154.54Z" fill="black"/>
<path d="M32.0019 27.1573C31.5213 26.9163 26.1254 24.4827 25.8442 20.9824C26.5651 17.4882 28.4475 15.8115 29.2985 15.4098C31.8217 14.6869 33.9351 14.6931 34.8363 14.9943C40.0928 17.7053 39.5113 22.1872 37.5588 25.0488C35.6064 27.9104 32.6027 27.4585 32.0019 27.1573Z" fill="black"/>
<path d="M33.1832 46.1703C26.3347 43.8811 24.6226 50.1865 24.6226 53.0983C24.983 57.7973 27.4761 65.599 27.7765 68.6112L27.7765 76.5934C28.1369 84.1841 29.1282 90.5999 29.7289 92.558C31.0506 95.3292 33.4836 96.775 35.7364 96.6244C40.5424 94.5159 41.0931 90.2487 41.1432 88.6422C41.7439 78.2803 41.0931 71.774 40.6926 69.8161C39.3709 63.0688 37.3384 55.4077 36.4873 52.6466C35.5862 49.3331 34.5349 46.7728 33.1832 46.1703Z" fill="black"/>
<path fill-rule="evenodd" clip-rule="evenodd" d="M80.6347 21.2161C82.3168 50.2535 73.7261 66.2481 69.2205 70.3145C73.0653 86.5803 77.7311 89.0402 79.5834 88.237C85.3506 86.7911 92.4995 77.5438 95.0527 73.7786C96.095 71.3743 94.9928 69.6956 94.1025 68.3396C93.71 67.7418 93.3587 67.2068 93.2504 66.6999C92.9858 65.4617 92.6824 64.4312 92.3705 63.3722L92.3705 63.3721L92.3705 63.372C91.6202 60.8242 90.8212 58.1106 90.3969 51.9403C89.9508 45.4546 90.8933 35.6997 91.3513 30.9592L91.3513 30.9591L91.3516 30.9565C91.3869 30.5902 91.4194 30.2539 91.4482 29.9514C92.2892 24.168 98.2066 14.2881 101.06 10.071C109.471 1.51644 114.827 3.74554 116.229 6.30588C121.035 15.8244 118.532 34.4697 116.68 42.6026C115.959 49.1089 109.421 63.8383 106.467 70.0133C109.11 82.5439 118.081 88.0863 122.237 89.2912C138.096 91.3395 143.463 83.7187 144.164 79.6522C138.156 74.8328 134.652 71.2181 133.651 70.0133C125.36 61.9407 124.948 51.5923 125.399 47.5259C130.806 40.6582 135.603 44.5604 137.405 47.422C138.586 56.0649 142.18 61.5434 144.466 65.028C145.088 65.976 145.613 66.7765 145.966 67.4529C147.288 69.9832 149.32 68.8084 149.871 67.9048C149.751 65.977 155.628 55.1532 158.582 49.9823C160.985 45.1628 163.087 43.5564 164.139 43.3555C174.952 42.0302 173.551 51.2374 171.798 56.0067C170.357 62.3925 165.19 73.0255 162.787 77.5437C155.278 87.6346 152.324 95.1649 150.922 99.8338C147.678 105.376 143.863 119.614 142.362 126.04C137.556 131.944 132.85 123.981 131.098 119.262C130.977 117.335 134.452 104.904 136.204 98.9301C130.917 101.34 123.188 100.537 119.984 99.8338C111.453 97.7855 102.712 88.2369 99.4081 83.7187C97.3655 87.8152 90.547 93.8596 87.3931 96.3698C76.3393 104.924 67.0678 94.9139 63.8137 88.8394C58.7674 80.7667 55.7036 61.0772 54.8025 52.2415C52.1592 37.783 57.2055 22.0194 60.0591 16.2461C76.039 -6.285 80.4345 10.1715 80.6347 21.2161ZM71.1815 27.86C70.9415 19.5712 67.9938 24.6739 67.1264 27.6455C66.8843 28.4749 65.849 33.0234 65.3229 38.5672C65.0607 41.3292 65.0426 43.9816 65.0276 46.1755C65.0155 47.9337 65.0055 49.3975 64.8736 50.3874C64.2737 54.887 65.5077 53.4722 66.3575 52.3868C68.8768 49.5449 70.5316 35.162 71.1815 27.86ZM110.2 27.7863C110.162 26.5157 110.112 24.8165 110.204 22.541C110.204 22.4383 110.204 22.3334 110.204 22.2268C110.21 19.5202 110.218 15.7711 106.564 21.336C105.403 22.8925 103.209 27.12 102.449 30.9761C102.389 31.4187 102.314 31.9389 102.23 32.5174C101.723 36.0075 100.907 41.6204 101.341 45.1349L101.819 55.3576C101.859 55.5878 101.869 55.9072 101.879 56.243C101.907 57.2257 101.94 58.3487 102.766 57.7874C102.878 57.681 103.084 56.9259 103.231 56.3888C103.292 56.1654 103.343 55.9798 103.372 55.8942C105.821 48.7505 110.204 34.7844 110.204 29.9217C110.248 29.3958 110.227 28.7025 110.2 27.7863Z" fill="black"/>
</g>
<defs>
<filter id="filter0_di_1115_91" x="0.78481" y="0.523207" width="221.038" height="171.607" filterUnits="userSpaceOnUse" color-interpolation-filters="sRGB">
<feFlood flood-opacity="0" result="BackgroundImageFix"/>
<feColorMatrix in="SourceAlpha" type="matrix" values="0 0 0 0 0 0 0 0 0 0 0 0 0 0 0 0 0 0 127 0" result="hardAlpha"/>
<feOffset dx="3.47679" dy="5.21519"/>
<feGaussianBlur stdDeviation="4.34599"/>
<feComposite in2="hardAlpha" operator="out"/>
<feColorMatrix type="matrix" values="0 0 0 0 0.466667 0 0 0 0 0.466667 0 0 0 0 0.466667 0 0 0 0.25 0"/>
<feBlend mode="normal" in2="BackgroundImageFix" result="effect1_dropShadow_1115_91"/>
<feBlend mode="normal" in="SourceGraphic" in2="effect1_dropShadow_1115_91" result="shape"/>
<feColorMatrix in="SourceAlpha" type="matrix" values="0 0 0 0 0 0 0 0 0 0 0 0 0 0 0 0 0 0 127 0" result="hardAlpha"/>
<feOffset dy="1.21741"/>
<feGaussianBlur stdDeviation="0.486963"/>
<feComposite in2="hardAlpha" operator="arithmetic" k2="-1" k3="1"/>
<feColorMatrix type="matrix" values="0 0 0 0 0.558333 0 0 0 0 0.6555 0 0 0 0 1 0 0 0 0.15 0"/>
<feBlend mode="normal" in2="shape" result="effect2_innerShadow_1115_91"/>
</filter>
</defs>
</svg>
