<svg width="111" height="35" viewBox="0 0 111 35" fill="none" xmlns="http://www.w3.org/2000/svg">
<path fill-rule="evenodd" clip-rule="evenodd" d="M15.4661 5.04654C15.9736 12.9192 13.6718 17.2724 12.457 18.3833C13.5285 22.7881 14.7983 23.4471 15.2992 23.226C16.8609 22.8236 18.7835 20.3029 19.4693 19.2772C19.7478 18.6233 19.4459 18.1699 19.202 17.8037C19.0945 17.6423 18.9983 17.4978 18.968 17.3605C18.8941 17.0251 18.81 16.7462 18.7235 16.4595C18.5155 15.7698 18.294 15.0352 18.168 13.3624C18.0356 11.6041 18.274 8.95667 18.3899 7.67013L18.4143 7.39665C18.6322 5.82659 20.2197 3.13647 20.9862 1.98767C23.2522 -0.347369 24.709 0.247755 25.0937 0.939705C26.414 3.51285 25.7681 8.57431 25.28 10.7834C25.096 12.5493 23.3487 16.5558 22.5585 18.2358C23.2975 21.6298 25.7405 23.1171 26.8696 23.4366C31.1748 23.9641 32.6169 21.8877 32.7998 20.7836C31.1619 19.487 30.2051 18.5129 29.9314 18.1878C27.6686 16.013 27.5386 13.207 27.6536 12.1033C29.1079 10.2311 30.416 11.281 30.9098 12.0539C31.2453 14.396 32.2297 15.8755 32.8558 16.8166C33.0262 17.0727 33.17 17.2888 33.2671 17.4717C33.63 18.1556 34.1792 17.8334 34.3269 17.5873C34.291 17.0647 35.8659 14.1187 36.6579 12.711C37.3011 11.3996 37.8686 10.9602 38.1534 10.9038C41.0839 10.5253 40.7199 13.025 40.2531 14.3216C39.8734 16.0561 38.4909 18.9491 37.8471 20.1788C35.8282 22.929 35.0404 24.9766 34.6684 26.2454C33.7984 27.7543 32.7889 31.6226 32.3929 33.3681C31.0998 34.9778 29.8094 32.8266 29.3258 31.5498C29.2898 31.0272 30.2102 27.6497 30.6749 26.0262C29.2453 26.6892 27.1474 26.4849 26.2772 26.3C23.9599 25.7595 21.5723 23.1851 20.6682 21.9655C20.1214 23.0802 18.2828 24.7316 17.4318 25.418C14.4488 27.7577 11.9165 25.059 11.0232 23.4172C9.6403 21.2366 8.77457 15.9018 8.51457 13.5069C7.77212 9.59012 9.11296 5.30576 9.87672 3.73487C14.1711 -2.40428 15.3923 2.05134 15.4661 5.04654ZM12.9137 6.86519C12.834 4.6175 12.0436 6.00668 11.8135 6.81417C11.7493 7.03957 11.4766 8.27505 11.3437 9.77959C11.2774 10.5292 11.2772 11.2486 11.277 11.8436C11.2768 12.3205 11.2767 12.7176 11.2427 12.9863C11.0879 14.2077 11.4201 13.8218 11.6487 13.5259C12.3269 12.7507 12.7504 8.84682 12.9137 6.86519ZM23.4963 6.77628C23.4838 6.43173 23.4671 5.97096 23.488 5.35363C23.4879 5.32578 23.4877 5.29731 23.4876 5.26841C23.4844 4.53429 23.48 3.51745 22.4987 5.03323C22.1867 5.45743 21.599 6.6079 21.3997 7.65509C21.3842 7.77525 21.3647 7.91647 21.3429 8.07352C21.2115 9.02101 21.0002 10.5448 21.1243 11.4972L21.2718 14.269C21.2832 14.3314 21.2863 14.418 21.2895 14.5091C21.2991 14.7755 21.3099 15.0801 21.5329 14.9264C21.563 14.8973 21.6177 14.6922 21.6565 14.5462C21.6727 14.4855 21.6861 14.4351 21.6939 14.4118C22.3456 12.47 23.5097 8.67431 23.5011 7.35543C23.5121 7.21272 23.5053 7.02471 23.4963 6.77628Z" fill="#767676"/>
<path d="M2.28628 6.74385C2.15551 6.67934 0.687715 6.02881 0.605279 5.07993C0.794634 4.13097 1.30221 3.67287 1.53233 3.56244C2.21539 3.36191 2.78861 3.35987 3.03355 3.43997C4.46403 4.16596 4.31422 5.38259 3.78972 6.16216C3.26523 6.94173 2.44975 6.82449 2.28628 6.74385Z" fill="#767676"/>
<path d="M2.64072 11.8986C0.779196 11.2898 0.325957 13.003 0.331098 13.7927C0.437155 15.0665 1.12712 17.1781 1.2139 17.9946L1.22799 20.1595C1.33916 22.2177 1.61933 23.956 1.78572 24.486C2.14907 25.2353 2.81152 25.6232 3.42227 25.5784C4.72204 24.998 4.86387 23.8396 4.87461 23.4038C5.01925 20.5924 4.83125 18.8289 4.71917 18.2986C4.3488 16.4709 3.784 14.3966 3.5483 13.6492C3.29805 12.7521 3.00839 12.0596 2.64072 11.8986Z" fill="#767676"/>
<path d="M45.9282 19.3192C45.9282 18.6102 46.0161 17.9598 46.1919 17.368C46.3735 16.7704 46.6313 16.2577 46.9653 15.83C47.2935 15.4022 47.6919 15.0682 48.1606 14.828C48.6294 14.5878 49.1538 14.4677 49.7339 14.4677C50.3022 14.4677 50.7974 14.5643 51.2192 14.7577C51.647 14.9452 52.0161 15.2206 52.3267 15.5839V10.6532H53.9526V24.1532H52.4585L52.3882 23.1512C52.0718 23.538 51.6938 23.8309 51.2544 24.0302C50.8149 24.2294 50.3022 24.329 49.7163 24.329C49.1421 24.329 48.6206 24.2059 48.1519 23.9598C47.689 23.7137 47.2935 23.3739 46.9653 22.9403C46.6372 22.5067 46.3823 21.997 46.2007 21.411C46.019 20.8192 45.9282 20.1835 45.9282 19.5038V19.3192ZM47.5542 19.5038C47.5542 19.9667 47.604 20.4061 47.7036 20.8221C47.8032 21.2382 47.9585 21.6044 48.1694 21.9208C48.3745 22.2372 48.6382 22.4891 48.9604 22.6766C49.2827 22.8583 49.6694 22.9491 50.1206 22.9491C50.6655 22.9491 51.1167 22.8261 51.4741 22.58C51.8315 22.3339 52.1157 22.0028 52.3267 21.5868V17.1747C52.1157 16.788 51.8315 16.4716 51.4741 16.2255C51.1167 15.9735 50.6714 15.8475 50.1382 15.8475C49.6812 15.8475 49.2886 15.9413 48.9604 16.1288C48.6382 16.3163 48.3745 16.5682 48.1694 16.8846C47.9585 17.2069 47.8032 17.579 47.7036 18.0009C47.604 18.4169 47.5542 18.8563 47.5542 19.3192V19.5038ZM61.2476 24.329C60.5796 24.329 59.9644 24.2147 59.4019 23.9862C58.8452 23.7577 58.3677 23.4384 57.9692 23.0282C57.5708 22.618 57.2603 22.1317 57.0376 21.5692C56.8149 21.0067 56.7036 20.3944 56.7036 19.7323V19.3632C56.7036 18.5956 56.8267 17.91 57.0728 17.3065C57.3188 16.6971 57.647 16.1815 58.0571 15.7596C58.4614 15.3436 58.9214 15.0243 59.437 14.8016C59.9585 14.579 60.4917 14.4677 61.0366 14.4677C61.7222 14.4677 62.3198 14.5878 62.8296 14.828C63.3452 15.0624 63.7729 15.3876 64.1128 15.8036C64.4526 16.2255 64.7046 16.7206 64.8687 17.2889C65.0386 17.8573 65.1235 18.4725 65.1235 19.1346V19.8641H58.3296V19.9257C58.3706 20.3886 58.4614 20.7958 58.6021 21.1473C58.7485 21.4989 58.9478 21.8095 59.1997 22.079C59.4575 22.3661 59.7681 22.5917 60.1313 22.7557C60.4946 22.9198 60.896 23.0018 61.3354 23.0018C61.9155 23.0018 62.4312 22.8846 62.8823 22.6503C63.3335 22.4159 63.7085 22.1054 64.0073 21.7186L65.0005 22.4921C64.6841 22.9725 64.2095 23.4003 63.5767 23.7753C62.9497 24.1444 62.1733 24.329 61.2476 24.329ZM61.0366 15.8036C60.7085 15.8036 60.3979 15.8651 60.105 15.9882C59.812 16.1054 59.5483 16.2782 59.314 16.5067C59.0796 16.7411 58.8804 17.0282 58.7163 17.368C58.5581 17.702 58.4468 18.0887 58.3823 18.5282H63.4976V18.4491C63.4976 18.1561 63.4419 17.8427 63.3306 17.5087C63.2192 17.1688 63.064 16.8759 62.8647 16.6298C62.6655 16.3837 62.4136 16.1845 62.1089 16.0321C61.8101 15.8798 61.4526 15.8036 61.0366 15.8036ZM74.1763 21.6307C74.1763 21.4374 74.1382 21.2645 74.062 21.1122C73.9858 20.954 73.8569 20.8104 73.6753 20.6815C73.4937 20.5526 73.2534 20.4354 72.9546 20.33C72.6558 20.2186 72.2837 20.119 71.8384 20.0311C71.2935 19.9198 70.7954 19.785 70.3442 19.6268C69.8989 19.4686 69.5181 19.2782 69.2017 19.0555C68.8794 18.8387 68.6304 18.5839 68.4546 18.2909C68.2788 17.9921 68.1909 17.6464 68.1909 17.2538C68.1909 16.8671 68.2817 16.5067 68.4634 16.1727C68.645 15.8329 68.8999 15.537 69.228 15.285C69.5562 15.0331 69.9458 14.8339 70.397 14.6874C70.854 14.5409 71.355 14.4677 71.8999 14.4677C72.4858 14.4677 73.0132 14.5438 73.4819 14.6962C73.9507 14.8485 74.3491 15.0595 74.6772 15.329C75.0054 15.5985 75.2573 15.9149 75.4331 16.2782C75.6147 16.6356 75.7056 17.0223 75.7056 17.4384H74.0796C74.0796 17.2333 74.0269 17.0341 73.9214 16.8407C73.8159 16.6415 73.6694 16.4657 73.4819 16.3134C73.2944 16.161 73.0659 16.038 72.7964 15.9442C72.5327 15.8505 72.2339 15.8036 71.8999 15.8036C71.5542 15.8036 71.2495 15.8417 70.9858 15.9179C70.728 15.994 70.5142 16.0966 70.3442 16.2255C70.1685 16.3544 70.0366 16.5038 69.9487 16.6737C69.8608 16.8436 69.8169 17.0194 69.8169 17.2011C69.8169 17.3886 69.8521 17.5555 69.9224 17.702C69.9927 17.8485 70.1157 17.9804 70.2915 18.0975C70.4614 18.2147 70.6899 18.3202 70.9771 18.4139C71.27 18.5077 71.6392 18.5985 72.0845 18.6864C72.6704 18.8095 73.1948 18.953 73.6577 19.1171C74.1206 19.2753 74.5103 19.4657 74.8267 19.6884C75.1431 19.9169 75.3833 20.1805 75.5474 20.4794C75.7173 20.7782 75.8022 21.1239 75.8022 21.5165C75.8022 21.9384 75.7056 22.3221 75.5122 22.6679C75.3247 23.0136 75.061 23.3095 74.7212 23.5555C74.3813 23.8016 73.9741 23.9921 73.4995 24.1268C73.0249 24.2616 72.5063 24.329 71.9438 24.329C71.2993 24.329 70.7251 24.244 70.2212 24.0741C69.7173 23.8983 69.2925 23.6669 68.9468 23.3798C68.5952 23.0985 68.3257 22.7704 68.1382 22.3954C67.9565 22.0204 67.8657 21.6307 67.8657 21.2264H69.4917C69.5151 21.5604 69.603 21.8417 69.7554 22.0702C69.9136 22.2987 70.1099 22.4833 70.3442 22.6239C70.5728 22.7645 70.8276 22.8641 71.1089 22.9227C71.3901 22.9813 71.6685 23.0106 71.9438 23.0106C72.3774 23.0106 72.7554 22.9608 73.0776 22.8612C73.3999 22.7557 73.6519 22.6122 73.8335 22.4305C73.9448 22.3192 74.0298 22.1962 74.0884 22.0614C74.147 21.9266 74.1763 21.7831 74.1763 21.6307ZM78.9224 14.6434H83.7827V22.747H86.8853V24.1532H78.9224V22.747H82.1567V16.0585H78.9224V14.6434ZM81.9458 12.1473C81.9458 12.0067 81.9663 11.8749 82.0073 11.7518C82.0542 11.6288 82.1245 11.5233 82.2183 11.4354C82.2944 11.3593 82.3911 11.3007 82.5083 11.2596C82.6313 11.2128 82.769 11.1893 82.9214 11.1893C83.0737 11.1893 83.2085 11.2128 83.3257 11.2596C83.4429 11.3007 83.5396 11.3593 83.6157 11.4354C83.7095 11.5175 83.7798 11.62 83.8267 11.743C83.8735 11.8661 83.897 12.0009 83.897 12.1473C83.897 12.411 83.8149 12.6307 83.6509 12.8065C83.4868 12.9823 83.2437 13.0702 82.9214 13.0702C82.5933 13.0702 82.3472 12.9823 82.1831 12.8065C82.0249 12.6307 81.9458 12.411 81.9458 12.1473ZM89.1792 19.3192C89.1792 18.6102 89.2642 17.9598 89.4341 17.368C89.6099 16.7704 89.8618 16.2577 90.1899 15.83C90.5181 15.4022 90.9165 15.0682 91.3853 14.828C91.854 14.5878 92.3843 14.4677 92.9761 14.4677C93.3569 14.4677 93.7056 14.5116 94.022 14.5995C94.3442 14.6874 94.6343 14.8163 94.8921 14.9862C95.0327 15.0741 95.1646 15.1766 95.2876 15.2938C95.4165 15.411 95.5366 15.5399 95.6479 15.6805L95.7271 14.6434H97.2036V23.9511C97.2036 24.578 97.104 25.1346 96.9048 25.621C96.7114 26.1073 96.439 26.5204 96.0874 26.8602C95.73 27.2001 95.3052 27.4579 94.813 27.6337C94.3208 27.8095 93.7759 27.8973 93.1782 27.8973C92.9321 27.8973 92.6509 27.868 92.3345 27.8095C92.0181 27.7567 91.6987 27.6659 91.3765 27.537C91.0483 27.4139 90.7319 27.247 90.4272 27.036C90.1284 26.8251 89.8706 26.5643 89.6538 26.2538L90.4976 25.2782C90.6968 25.5184 90.9019 25.7206 91.1128 25.8846C91.3237 26.0546 91.5376 26.1893 91.7544 26.2889C91.9712 26.3886 92.188 26.4589 92.4048 26.4999C92.6216 26.5468 92.8384 26.5702 93.0552 26.5702C93.4419 26.5702 93.7905 26.5145 94.1011 26.4032C94.4116 26.2919 94.6782 26.1278 94.9009 25.911C95.1177 25.7001 95.2847 25.4364 95.4019 25.12C95.519 24.8036 95.5776 24.4403 95.5776 24.0302V23.2128C95.4546 23.3534 95.3228 23.4823 95.1821 23.5995C95.0474 23.7167 94.9009 23.8192 94.7427 23.9071C94.4966 24.0419 94.2241 24.1444 93.9253 24.2147C93.6265 24.2909 93.3042 24.329 92.9585 24.329C92.3784 24.329 91.854 24.2059 91.3853 23.9598C90.9165 23.7137 90.521 23.3739 90.1987 22.9403C89.8706 22.5067 89.6187 21.997 89.4429 21.411C89.2671 20.8192 89.1792 20.1835 89.1792 19.5038V19.3192ZM90.8052 19.5038C90.8052 19.9667 90.8521 20.4061 90.9458 20.8221C91.0454 21.2382 91.2007 21.6044 91.4116 21.9208C91.6167 22.2372 91.8804 22.4891 92.2026 22.6766C92.5249 22.8583 92.9116 22.9491 93.3628 22.9491C93.644 22.9491 93.896 22.9169 94.1187 22.8524C94.3472 22.7821 94.5522 22.6854 94.7339 22.5624C94.9097 22.4393 95.0679 22.2929 95.2085 22.1229C95.3491 21.953 95.4722 21.7655 95.5776 21.5604V17.2011C95.4722 17.0018 95.3491 16.8202 95.2085 16.6561C95.0679 16.4921 94.9067 16.3485 94.7251 16.2255C94.5435 16.1083 94.3413 16.0175 94.1187 15.953C93.896 15.8827 93.6499 15.8475 93.3804 15.8475C92.9233 15.8475 92.5308 15.9413 92.2026 16.1288C91.8804 16.3163 91.6167 16.5682 91.4116 16.8846C91.2007 17.2069 91.0454 17.579 90.9458 18.0009C90.8521 18.4169 90.8052 18.8563 90.8052 19.3192V19.5038ZM100.289 24.1532V14.6434H101.748L101.862 16.0497C102.002 15.8505 102.155 15.6688 102.319 15.5048C102.489 15.3348 102.667 15.1884 102.855 15.0653C103.136 14.8778 103.441 14.7343 103.769 14.6346C104.103 14.5292 104.455 14.4735 104.824 14.4677C105.322 14.4677 105.773 14.538 106.177 14.6786C106.587 14.8192 106.936 15.0389 107.223 15.3378C107.51 15.6366 107.73 16.0175 107.882 16.4804C108.041 16.9374 108.12 17.4823 108.12 18.1151V24.1532H106.494V18.1503C106.494 17.7284 106.447 17.371 106.353 17.078C106.259 16.785 106.122 16.5477 105.94 16.3661C105.752 16.1845 105.524 16.0526 105.254 15.9706C104.991 15.8886 104.686 15.8475 104.34 15.8475C104.042 15.8475 103.763 15.8915 103.505 15.9794C103.248 16.0614 103.01 16.1757 102.793 16.3221C102.618 16.4511 102.454 16.6005 102.301 16.7704C102.155 16.9403 102.026 17.1278 101.915 17.3329V24.1532H100.289Z" fill="#767676"/>
</svg>
