<svg width="24" height="24" viewBox="0 0 24 24" fill="none" xmlns="http://www.w3.org/2000/svg">
<g clip-path="url(#clip0_264_87)">
<path d="M8.49688 3.20923C8.43607 3.17205 8.38713 3.11832 8.35576 3.05432C8.3244 2.99033 8.31192 2.91872 8.3198 2.84789C8.32767 2.77706 8.35556 2.70993 8.4002 2.65438C8.44485 2.59883 8.5044 2.55716 8.57188 2.53423C9.93828 2.06154 11.3929 1.89957 12.8298 2.06013C14.2667 2.22069 15.6498 2.69973 16.8781 3.46236C16.9238 3.48963 16.9632 3.52633 16.9936 3.57C17.024 3.61366 17.0448 3.66331 17.0546 3.71563C17.0643 3.76795 17.0628 3.82175 17.0502 3.87345C17.0376 3.92515 17.0141 3.97357 16.9813 4.01548C15.8912 5.39866 14.5605 6.57375 13.0531 7.48423C11.8332 5.77094 10.2843 4.31769 8.49688 3.20923ZM11.7125 8.18736C10.3399 6.32241 8.53939 4.81448 6.4625 3.79048C6.40118 3.7627 6.33388 3.75072 6.26673 3.75563C6.19959 3.76055 6.13475 3.7822 6.07813 3.81861C4.39769 5.02893 3.14134 6.73797 2.4875 8.70298C2.47203 8.75286 2.46715 8.80541 2.47316 8.85728C2.47918 8.90916 2.49596 8.9592 2.52244 9.00421C2.54892 9.04922 2.5845 9.0882 2.62692 9.11867C2.66933 9.14913 2.71764 9.17039 2.76875 9.18111C3.74843 9.39252 4.74777 9.49937 5.75 9.49986C7.80944 9.50245 9.84451 9.05448 11.7125 8.18736ZM21.4437 10.6905C21.204 8.51591 20.2398 6.48517 18.7062 4.92486C18.6684 4.88798 18.6233 4.8593 18.5739 4.84063C18.5244 4.82195 18.4717 4.81368 18.4189 4.81632C18.3661 4.81896 18.3144 4.83245 18.2671 4.85597C18.2197 4.87948 18.1777 4.91251 18.1437 4.95298C16.9582 6.4659 15.5063 7.74948 13.8594 8.74048C14.3731 9.63191 14.8 10.5706 15.1344 11.5436C16.4761 11.1808 17.8601 10.9979 19.25 10.9999C19.8452 11.0012 20.4399 11.0357 21.0312 11.103C21.0869 11.1089 21.1431 11.1023 21.1958 11.0836C21.2486 11.065 21.2965 11.0348 21.336 10.9952C21.3756 10.9557 21.4058 10.9078 21.4244 10.8551C21.443 10.8023 21.4497 10.7461 21.4437 10.6905ZM15.5469 12.9874C15.8223 14.1707 15.9607 15.3818 15.9594 16.5967C15.9587 17.7574 15.8298 18.9144 15.575 20.0467C15.5583 20.1164 15.5619 20.1893 15.5853 20.257C15.6088 20.3246 15.6511 20.3842 15.7073 20.4285C15.7635 20.4729 15.8312 20.5003 15.9025 20.5074C15.9737 20.5145 16.0455 20.501 16.1094 20.4686C17.5319 19.7571 18.759 18.7086 19.6839 17.4146C20.6087 16.1205 21.2032 14.6199 21.4156 13.0436C21.4222 12.9943 21.4189 12.9442 21.4059 12.8962C21.3929 12.8482 21.3704 12.8032 21.3399 12.764C21.3094 12.7247 21.2713 12.6919 21.228 12.6675C21.1847 12.6431 21.1369 12.6275 21.0875 12.6217C20.4786 12.5385 19.8646 12.4978 19.25 12.4999C17.9995 12.4983 16.7543 12.6622 15.5469 12.9874ZM13.7 12.0124C13.4029 11.124 13.0133 10.2693 12.5375 9.46236C10.4188 10.477 8.09913 11.0024 5.75 10.9999C4.65023 10.9993 3.55357 10.883 2.47813 10.653C2.42603 10.6422 2.37223 10.6426 2.32031 10.6542C2.26838 10.6657 2.21951 10.6882 2.17695 10.7202C2.13439 10.7521 2.0991 10.7927 2.07344 10.8393C2.04779 10.8859 2.03234 10.9374 2.02813 10.9905C2.00938 11.2405 2 11.4936 2 11.7499C1.99952 13.0848 2.27397 14.4055 2.80623 15.6297C3.3385 16.8539 4.11718 17.9554 5.09375 18.8655C5.13399 18.9041 5.18255 18.9331 5.2357 18.95C5.28884 18.967 5.34517 18.9716 5.40037 18.9635C5.45557 18.9553 5.50817 18.9347 5.55415 18.9031C5.60013 18.8714 5.63826 18.8297 5.66563 18.7811C7.49485 15.6758 10.3292 13.2879 13.7 12.0124ZM6.84688 19.7374C6.82186 19.7803 6.80565 19.8279 6.79918 19.8772C6.79272 19.9265 6.79613 19.9766 6.80922 20.0246C6.8223 20.0726 6.84481 20.1175 6.87541 20.1567C6.90602 20.1959 6.94412 20.2286 6.9875 20.253C8.44045 21.0735 10.0814 21.5031 11.75 21.4999C12.319 21.5024 12.8871 21.4521 13.4469 21.3499C13.5117 21.3391 13.5722 21.3106 13.6219 21.2676C13.6715 21.2246 13.7083 21.1687 13.7281 21.1061C14.2144 19.6525 14.4614 18.1295 14.4594 16.5967C14.4588 15.5403 14.3425 14.4872 14.1125 13.4561C11.0416 14.6541 8.4762 16.8719 6.84688 19.7374Z" fill="white"/>
</g>
<defs>
<clipPath id="clip0_264_87">
<rect width="24" height="24" fill="white"/>
</clipPath>
</defs>
</svg>
