<svg width="24" height="24" viewBox="0 0 24 24" fill="none" xmlns="http://www.w3.org/2000/svg">
<path d="M16.5 3H7.5C5.01472 3 3 5.01472 3 7.5V16.5C3 18.9853 5.01472 21 7.5 21H16.5C18.9853 21 21 18.9853 21 16.5V7.5C21 5.01472 18.9853 3 16.5 3Z" stroke="black" stroke-width="1.6" stroke-linecap="round" stroke-linejoin="round"/>
<path d="M16.95 7.0498H16.959M15.6 11.4328C15.7111 12.1818 15.5832 12.9468 15.2344 13.6189C14.8857 14.291 14.3339 14.8361 13.6575 15.1765C12.9811 15.5169 12.2146 15.6354 11.467 15.5151C10.7194 15.3948 10.0288 15.0419 9.49338 14.5064C8.95795 13.971 8.60499 13.2804 8.48469 12.5328C8.36439 11.7852 8.48289 11.0187 8.82332 10.3423C9.16376 9.66597 9.7088 9.11417 10.3809 8.76542C11.053 8.41667 11.818 8.28873 12.567 8.3998C13.3311 8.5131 14.0384 8.86912 14.5846 9.41528C15.1307 9.96144 15.4867 10.6688 15.6 11.4328Z" stroke="black" stroke-width="1.6" stroke-linecap="round" stroke-linejoin="round"/>
</svg>
