<svg width="24" height="24" viewBox="0 0 24 24" fill="none" xmlns="http://www.w3.org/2000/svg">
<path d="M13.028 2C14.153 2.003 14.7239 2.009 15.2169 2.023L15.4109 2.03C15.6349 2.038 15.8559 2.048 16.1229 2.06C17.1868 2.10999 17.9128 2.27799 18.5497 2.52497C19.2097 2.77896 19.7657 3.12294 20.3216 3.67791C20.8301 4.17778 21.2235 4.78245 21.4746 5.44982C21.7216 6.08679 21.8896 6.81275 21.9396 7.8777C21.9516 8.14368 21.9616 8.36467 21.9696 8.58966L21.9756 8.78365C21.9906 9.27563 21.9966 9.8466 21.9986 10.9715L21.9996 11.7175V13.0274C22.002 13.7568 21.9943 14.4862 21.9766 15.2153L21.9706 15.4093C21.9626 15.6343 21.9526 15.8553 21.9406 16.1213C21.8906 17.1862 21.7206 17.9112 21.4746 18.5491C21.2243 19.2169 20.8307 19.8217 20.3216 20.3211C19.8216 20.8294 19.217 21.2228 18.5497 21.474C17.9128 21.721 17.1868 21.889 16.1229 21.939C15.8856 21.9501 15.6483 21.9601 15.4109 21.969L15.2169 21.975C14.7239 21.989 14.153 21.996 13.028 21.998L12.2821 21.999H10.9731C10.2434 22.0015 9.51372 21.9938 8.78423 21.976L8.59024 21.97C8.35286 21.961 8.11554 21.9507 7.87828 21.939C6.81433 21.889 6.08837 21.721 5.4504 21.474C4.7831 21.2234 4.17868 20.8299 3.67949 20.3211C3.17056 19.8214 2.77676 19.2167 2.52555 18.5491C2.27856 17.9122 2.11057 17.1862 2.06057 16.1213C2.04943 15.884 2.03943 15.6467 2.03058 15.4093L2.02558 15.2153C2.00715 14.4862 1.99881 13.7568 2.00058 13.0274V10.9715C1.99779 10.2422 2.00512 9.51281 2.02258 8.78365L2.02958 8.58966C2.03758 8.36467 2.04757 8.14368 2.05957 7.8777C2.10957 6.81275 2.27756 6.08779 2.52455 5.44982C2.77565 4.78176 3.17024 4.17691 3.68049 3.67791C4.17956 3.16941 4.78358 2.77595 5.4504 2.52497C6.08837 2.27799 6.81333 2.10999 7.87828 2.06C8.14426 2.048 8.36625 2.038 8.59024 2.03L8.78423 2.024C9.51338 2.00623 10.2428 1.99857 10.9721 2.001L13.028 2ZM12.0001 6.99974C10.6741 6.99974 9.40235 7.5265 8.46471 8.46413C7.52708 9.40177 7.00032 10.6735 7.00032 11.9995C7.00032 13.3255 7.52708 14.5972 8.46471 15.5348C9.40235 16.4725 10.6741 16.9992 12.0001 16.9992C13.3261 16.9992 14.5978 16.4725 15.5354 15.5348C16.4731 14.5972 16.9998 13.3255 16.9998 11.9995C16.9998 10.6735 16.4731 9.40177 15.5354 8.46413C14.5978 7.5265 13.3261 6.99974 12.0001 6.99974ZM12.0001 8.99964C12.394 8.99958 12.7841 9.0771 13.1481 9.2278C13.5121 9.3785 13.8428 9.59941 14.1214 9.87792C14.4 10.1564 14.6211 10.4871 14.7719 10.851C14.9227 11.215 15.0003 11.605 15.0004 11.999C15.0005 12.3929 14.9229 12.783 14.7723 13.147C14.6216 13.511 14.4006 13.8417 14.1221 14.1203C13.8436 14.399 13.513 14.62 13.149 14.7708C12.7851 14.9216 12.395 14.9993 12.0011 14.9993C11.2055 14.9993 10.4424 14.6833 9.87985 14.1207C9.31727 13.5581 9.00122 12.7951 9.00122 11.9995C9.00122 11.2039 9.31727 10.4409 9.87985 9.87827C10.4424 9.31569 11.2055 8.99964 12.0011 8.99964M17.2508 5.49982C16.9193 5.49982 16.6014 5.63151 16.367 5.86592C16.1325 6.10033 16.0009 6.41825 16.0009 6.74976C16.0009 7.08126 16.1325 7.39919 16.367 7.63359C16.6014 7.868 16.9193 7.99969 17.2508 7.99969C17.5823 7.99969 17.9002 7.868 18.1346 7.63359C18.369 7.39919 18.5007 7.08126 18.5007 6.74976C18.5007 6.41825 18.369 6.10033 18.1346 5.86592C17.9002 5.63151 17.5823 5.49982 17.2508 5.49982Z" fill="white"/>
</svg>
