<svg width="24" height="24" viewBox="0 0 24 24" fill="none" xmlns="http://www.w3.org/2000/svg">
<path d="M6.15906 21H2.04235V9.20047H6.15906V21ZM14.7059 13.0461C14.2251 13.0461 13.7641 13.2371 13.4241 13.577C13.0842 13.917 12.8932 14.3781 12.8932 14.8588V21H8.56471V9.20047H12.8932V10.5473C13.9077 9.68842 15.1894 9.20927 16.5186 9.192C19.2038 9.192 21.0673 11.1826 21.0673 14.9605V21H16.5186V14.8588C16.5197 14.6201 16.4736 14.3834 16.383 14.1625C16.2924 13.9416 16.1591 13.7408 15.9907 13.5716C15.8222 13.4023 15.622 13.2681 15.4015 13.1764C15.1811 13.0848 14.9446 13.0376 14.7059 13.0376V13.0461ZM6.2353 5.11765C6.2353 5.53648 6.1111 5.9459 5.87841 6.29415C5.64572 6.64239 5.31499 6.91382 4.92804 7.0741C4.54109 7.23438 4.1153 7.27631 3.70452 7.1946C3.29373 7.11289 2.9164 6.91121 2.62025 6.61505C2.32409 6.31889 2.1224 5.94156 2.04069 5.53078C1.95898 5.12 2.00092 4.69421 2.1612 4.30726C2.32148 3.92031 2.5929 3.58958 2.94115 3.35689C3.28939 3.1242 3.69882 3 4.11765 3C4.67634 3.00447 5.21063 3.22955 5.60411 3.6262C5.99759 4.02285 6.21837 4.55894 6.21835 5.11765H6.2353Z" stroke="black" stroke-width="1.6" stroke-linecap="round" stroke-linejoin="round"/>
</svg>
